<svg xmlns="http://www.w3.org/2000/svg" viewBox="0 0 512 512"><path fill="#969696" d="M469.333 64H42.667C19.135 64 0 83.135 0 106.667v298.667C0 428.865 19.135 448 42.667 448h426.667C492.865 448 512 428.865 512 405.333V106.667C512 83.135 492.865 64 469.333 64zM42.667 85.333h426.667c1.168 0 2.177.486 3.294.667L267.333 252.677c-6.938 4.385-16.854 3.677-21.906.563L39.365 86.003c1.119-.183 2.131-.67 3.302-.67zm448 320c0 11.76-9.573 21.333-21.333 21.333H42.667c-11.76 0-21.333-9.573-21.333-21.333V106.667c0-2.385.637-4.585 1.362-6.728l210.221 170.54c6.927 4.479 14.917 6.854 23.083 6.854 7.875 0 15.563-2.198 22.313-6.375a9.843 9.843 0 001.76-1.156l209.23-169.868c.727 2.145 1.363 4.346 1.363 6.733v298.666z"/></svg>